<?xml version="1.0" encoding="UTF-8"?>
<svg id="Layer_2" data-name="Layer 2" xmlns="http://www.w3.org/2000/svg" viewBox="0 0 317.51939 208.2238">
  <defs>
    <style>
      .cls-1 {
        fill: #696969;
      }

      .cls-1, .cls-2, .cls-3, .cls-4, .cls-5, .cls-6, .cls-7 {
        stroke-width: 0px;
      }

      .cls-1, .cls-2, .cls-3, .cls-5, .cls-6 {
        fill-rule: evenodd;
      }

      .cls-2 {
        fill: #e9e9e9;
      }

      .cls-3, .cls-7 {
        fill: #5b5b5b;
      }

      .cls-4, .cls-5 {
        fill: #dedede;
      }

      .cls-6 {
        fill: #a5a5a5;
      }
    </style>
  </defs>
  <g id="_Ñëîé_1" data-name="Ñëîé 1">
    <g>
      <path class="cls-6" d="M162.7956,38.1988c0,.2573-.2085.4658-.4657.4658-.2573,0-.4658-.2085-.4658-.4658,0-.2572.2085-.4657.4658-.4657.2572,0,.4657.2085.4657.4657Z"/>
      <path class="cls-6" d="M153.7565,88.298c0,.2572-.2085.4657-.4657.4657s-.4658-.2085-.4658-.4657c0-.2573.2086-.4657.4658-.4657s.4657.2084.4657.4657Z"/>
      <path class="cls-6" d="M220.50509,113.1817c0,.2572-.20839.4657-.4657.4657-.2572,0-.46569-.2085-.46569-.4657s.20849-.4658.46569-.4658c.25731,0,.4657.2086.4657.4658Z"/>
      <path class="cls-6" d="M233.68339,170.2613c0,.2572-.2085.4658-.46569.4658-.25721,0-.46581-.2086-.46581-.4658s.2086-.4657.46581-.4657c.25719,0,.46569.2085.46569.4657Z"/>
      <path class="cls-1" d="M191.1844,94.1138c0,.2573-.2085.4657-.46569.4657-.25731,0-.46571-.2084-.46571-.4657,0-.2572.2084-.4657.46571-.4657.25719,0,.46569.2085.46569.4657Z"/>
      <path class="cls-1" d="M169.165,83.4958c0,.2572-.2086.4658-.4658.4658s-.4657-.2086-.4657-.4658.2085-.4657.4657-.4657.4658.2085.4658.4657Z"/>
      <path class="cls-3" d="M141.8149,62.2169c0,.2573-.2086.4657-.4658.4657s-.4657-.2084-.4657-.4657c0-.2572.2085-.4657.4657-.4657s.4658.2085.4658.4657Z"/>
      <circle class="cls-7" cx="113.186" cy="27.3843" r=".4657"/>
      <path class="cls-3" d="M168.6992,11.457c0,.2572-.20849.4658-.4657.4658-.2573,0-.4657-.2086-.4657-.4658s.2084-.4657.4657-.4657c.25721,0,.4657.2085.4657.4657Z"/>
      <path class="cls-3" d="M198.29899,93.6481c0,.2572-.2084.4657-.4657.4657-.2572,0-.4657-.2085-.4657-.4657s.2085-.4658.4657-.4658c.2573,0,.4657.2086.4657.4658Z"/>
      <circle class="cls-7" cx="201.68799" cy="7.5729" r=".46575"/>
      <path class="cls-5" d="M108.4151,201.9818c0,.2572-.2085.4657-.4657.4657-.2573,0-.4658-.2085-.4658-.4657s.2085-.4657.4658-.4657c.2572,0,.4657.2085.4657.4657Z"/>
      <path class="cls-1" d="M218.83999,17.7633c0,.2572-.2085.4658-.4657.4658s-.4658-.2086-.4658-.4658.2086-.4657.4658-.4657.4657.2085.4657.4657Z"/>
      <path class="cls-1" d="M214.82539,79.5205c0,.2572-.2085.4657-.4658.4657-.2572,0-.4657-.2085-.4657-.4657s.2085-.4658.4657-.4658c.2573,0,.4658.2086.4658.4658Z"/>
      <path class="cls-1" d="M95.8889,57.1924c0,.2572-.2085.4657-.4657.4657s-.4658-.2085-.4658-.4657.2086-.4657.4658-.4657.4657.2085.4657.4657Z"/>
      <path class="cls-1" d="M285.30609,13.5911c0,.2572-.2085.4657-.4657.4657-.2573,0-.4658-.2085-.4658-.4657s.2085-.4658.4658-.4658c.2572,0,.4657.2086.4657.4658Z"/>
      <path class="cls-1" d="M120.4826,81.5595c0,.2572-.2085.4657-.4657.4657s-.4657-.2085-.4657-.4657.20851-.4658.4657-.4658.4657.2086.4657.4658Z"/>
      <path class="cls-1" d="M163.329,207.758c0,.2572-.2085.4658-.4657.4658s-.4657-.2086-.4657-.4658.2085-.4657.4657-.4657.4657.2085.4657.4657Z"/>
      <path class="cls-1" d="M317.51939,7.5878c0,.2572-.2085.4657-.46569.4657-.25731,0-.46581-.2085-.46581-.4657,0-.2573.2085-.4658.46581-.4658.25719,0,.46569.2085.46569.4658Z"/>
      <path class="cls-1" d="M126.5828,24.1097c0,.2572-.2086.4657-.4658.4657s-.4657-.2085-.4657-.4657c0-.2573.2085-.4657.4657-.4657s.4658.2084.4658.4657Z"/>
      <path class="cls-1" d="M217.08089,142.8356c0,.2573-.2085.4658-.4657.4658s-.4657-.2085-.4657-.4658c0-.2572.2085-.4657.4657-.4657s.4657.2085.4657.4657Z"/>
      <path class="cls-1" d="M68.8677,78.6176c0,.2572-.20851.4658-.46571.4658-.25729,0-.4657-.2086-.4657-.4658s.20841-.4657.4657-.4657c.2572,0,.46571.2085.46571.4657Z"/>
      <path class="cls-1" d="M79.432,12.3885c0,.2572-.2085.4657-.4657.4657s-.4658-.2085-.4658-.4657c0-.2573.2086-.4657.4658-.4657s.4657.2084.4657.4657Z"/>
      <path class="cls-1" d="M178.6591,122.2746c0,.2572-.2085.4658-.4657.4658s-.4658-.2086-.4658-.4658.2086-.4657.4658-.4657.4657.2085.4657.4657Z"/>
      <path class="cls-1" d="M142.2806,45.2333c0,.2572-.2085.4658-.4657.4658s-.4658-.2086-.4658-.4658.20861-.4657.4658-.4657.4657.2085.4657.4657Z"/>
      <path class="cls-1" d="M251.15749,156.328c0,.2572-.2085.4658-.4657.4658s-.4658-.2086-.4658-.4658.2086-.4657.4658-.4657.4657.2085.4657.4657Z"/>
      <path class="cls-6" d="M224.24549,47.1014c0,.2572-.2086.4657-.46579.4657-.25721,0-.46571-.2085-.46571-.4657s.2085-.4658.46571-.4658c.25719,0,.46579.2086.46579.4658Z"/>
      <path class="cls-1" d="M247.08079,50.9714c0,.2572-.2086.4657-.4658.4657s-.4657-.2085-.4657-.4657c0-.2573.2085-.4658.4657-.4658s.4658.2085.4658.4658Z"/>
      <path class="cls-1" d="M193.4631,171.6956c0,.2572-.20839.4657-.4657.4657-.2572,0-.46569-.2085-.46569-.4657,0-.2573.20849-.4657.46569-.4657.25731,0,.4657.2084.4657.4657Z"/>
      <path class="cls-5" d="M106.2348,64.901c0,.2573-.2085.4658-.4657.4658s-.4658-.2085-.4658-.4658c0-.2572.2086-.4657.4658-.4657s.4657.2085.4657.4657Z"/>
      <circle class="cls-4" cx="149.2532" cy="70.5229" r=".4657"/>
      <path class="cls-5" d="M145.0488,11.9228c0,.2572-.2086.4657-.4658.4657s-.4657-.2085-.4657-.4657c0-.2573.2085-.4658.4657-.4658s.4658.2085.4658.4658Z"/>
      <path class="cls-5" d="M66.4665,47.0866c0,.2572-.2085.4657-.4657.4657-.2573,0-.4657-.2085-.4657-.4657s.2084-.4658.4657-.4658c.2572,0,.4657.2086.4657.4658Z"/>
      <path class="cls-2" d="M177.6407,138.1611c0,.2572-.20851.4657-.46571.4657-.25729,0-.4657-.2085-.4657-.4657s.20841-.4657.4657-.4657c.2572,0,.46571.2085.46571.4657Z"/>
      <path class="cls-5" d="M158.3697,28.8373c0,.2572-.20861.4657-.46581.4657s-.4657-.2085-.4657-.4657.20851-.4658.4657-.4658.46581.2086.46581.4658Z"/>
      <path class="cls-5" d="M246.61499,92.5406c0,.2572-.2085.4658-.4657.4658s-.4657-.2086-.4657-.4658.2085-.4657.4657-.4657.4657.2085.4657.4657Z"/>
      <path class="cls-5" d="M152.0965,139.6896c0,.2573-.2085.4658-.4657.4658-.2573,0-.4657-.2085-.4657-.4658,0-.2572.2084-.4657.4657-.4657.2572,0,.4657.2085.4657.4657Z"/>
      <path class="cls-5" d="M87.8152,143.7523c0,.2572-.20849.4657-.4658.4657-.2572,0-.46569-.2085-.46569-.4657s.20849-.4658.46569-.4658c.25731,0,.4658.2086.4658.4658Z"/>
      <path class="cls-5" d="M246.14929,4.8707c0,.2573-.2085.4658-.4657.4658-.2573,0-.4658-.2085-.4658-.4658,0-.2572.2085-.4657.4658-.4657.2572,0,.4657.2085.4657.4657Z"/>
      <path class="cls-5" d="M214.56789,38.184c0,.2572-.2085.4658-.4657.4658s-.4658-.2086-.4658-.4658.2086-.4657.4658-.4657.4657.2085.4657.4657Z"/>
      <path class="cls-5" d="M198.76479,64.901c0,.2573-.2085.4658-.4658.4658-.2572,0-.4657-.2085-.4657-.4658,0-.2572.2085-.4657.4657-.4657.2573,0,.4658.2085.4658.4657Z"/>
      <path class="cls-5" d="M150.6446,65.0515c0,.2573-.2085.4657-.4657.4657-.2573,0-.4658-.2084-.4658-.4657,0-.2572.2085-.4657.4658-.4657.2572,0,.4657.2085.4657.4657Z"/>
      <path class="cls-5" d="M165.6224,146.2899c0,.2572-.2085.4657-.46569.4657-.25731,0-.46581-.2085-.46581-.4657s.2085-.4657.46581-.4657c.25719,0,.46569.2085.46569.4657Z"/>
      <path class="cls-6" d="M152.569,106.0745c0,.2573-.2086.4658-.4658.4658s-.4657-.2085-.4657-.4658c0-.2572.2085-.4657.4657-.4657s.4658.2085.4658.4657Z"/>
      <path class="cls-1" d="M123.2482,87.0067c0,.2572-.20849.4658-.4657.4658s-.46579-.2086-.46579-.4658.20859-.4657.46579-.4657.4657.2085.4657.4657Z"/>
      <path class="cls-1" d="M101.2287,76.3887c0,.2572-.20841.4657-.46571.4657-.2572,0-.4657-.2085-.4657-.4657s.2085-.4658.4657-.4658c.2573,0,.46571.2086.46571.4658Z"/>
      <path class="cls-3" d="M73.8787,55.1097c0,.2573-.20861.4658-.46581.4658s-.4657-.2085-.4657-.4658c0-.2572.20851-.4657.4657-.4657s.46581.2085.46581.4657Z"/>
      <path class="cls-3" d="M45.7155,20.2771c0,.2573-.2085.4658-.4657.4658s-.4657-.2085-.4657-.4658c0-.2572.2085-.4657.4657-.4657s.4657.2085.4657.4657Z"/>
      <path class="cls-3" d="M100.763,4.3499c0,.2572-.2085.4657-.4657.4657s-.4658-.2085-.4658-.4657.2086-.4658.4658-.4658.4657.2086.4657.4658Z"/>
      <path class="cls-3" d="M53.5569,125.3191c0,.2572-.2086.4658-.4658.4658s-.4657-.2086-.4657-.4658.2085-.4657.4657-.4657.4658.2085.4658.4657Z"/>
      <path class="cls-3" d="M130.3629,86.541c0,.2572-.2086.4657-.4658.4657s-.4657-.2085-.4657-.4657c0-.2573.2085-.4658.4657-.4658s.4658.2085.4658.4658Z"/>
      <path class="cls-3" d="M134.2175.4658c0,.2572-.2085.4657-.4657.4657s-.4658-.2085-.4658-.4657.2086-.4658.4658-.4658.4657.2086.4657.4658Z"/>
      <path class="cls-1" d="M27.9527,50.0852c0,.2572-.2085.4658-.4657.4658-.2573,0-.4658-.2086-.4658-.4658s.2085-.4657.4658-.4657c.2572,0,.4657.2085.4657.4657Z"/>
      <path class="cls-1" d="M52.5464,74.4523c0,.2572-.2085.4658-.46569.4658s-.46571-.2086-.46571-.4658.2085-.4657.46571-.4657.46569.2085.46569.4657Z"/>
      <path class="cls-1" d="M58.6465,17.0026c0,.2572-.2085.4657-.4657.4657s-.4658-.2085-.4658-.4657c0-.2573.2086-.4658.4658-.4658s.4657.2085.4657.4658Z"/>
      <path class="cls-1" d="M56.083,139.6485c0,.2572-.2085.4658-.4658.4658-.2572,0-.4657-.2086-.4657-.4658s.2085-.4658.4657-.4658c.2573,0,.4658.2086.4658.4658Z"/>
      <path class="cls-1" d="M.9315,71.5105c0,.2572-.2085.4657-.4658.4657-.2572,0-.4657-.2085-.4657-.4657s.2085-.4657.4657-.4657c.2573,0,.4658.2085.4658.4657Z"/>
      <path class="cls-1" d="M11.4958,5.2813c0,.2572-.2085.4658-.4657.4658-.2573,0-.4658-.2086-.4658-.4658s.2085-.4657.4658-.4657c.2572,0,.4657.2085.4657.4657Z"/>
      <path class="cls-1" d="M74.3444,38.1262c0,.2572-.2085.4657-.46569.4657-.25731,0-.46581-.2085-.46581-.4657s.2085-.4657.46581-.4657c.25719,0,.46569.2085.46569.4657Z"/>
      <path class="cls-5" d="M38.2986,57.7939c0,.2572-.2085.4657-.4657.4657-.2573,0-.4658-.2085-.4658-.4657s.2085-.4657.4658-.4657c.2572,0,.4657.2085.4657.4657Z"/>
      <path class="cls-5" d="M77.1126,4.8156c0,.2572-.2086.4657-.4658.4657s-.4657-.2085-.4657-.4657.2085-.4657.4657-.4657.4658.2085.4658.4657Z"/>
      <path class="cls-2" d="M109.7045,131.0539c0,.2573-.2085.4658-.46579.4658-.25721,0-.46571-.2085-.46571-.4658,0-.2572.2085-.4657.46571-.4657.25729,0,.46579.2085.46579.4657Z"/>
      <path class="cls-5" d="M84.1603,132.5825c0,.2572-.2085.4658-.4658.4658-.2572,0-.4657-.2086-.4657-.4658s.2085-.4657.4657-.4657c.2573,0,.4658.2085.4658.4657Z"/>
      <path class="cls-5" d="M19.879,136.6451c0,.2573-.2086.4657-.4658.4657s-.4657-.2084-.4657-.4657c0-.2572.2085-.4657.4657-.4657s.4658.2085.4658.4657Z"/>
      <path class="cls-5" d="M146.6317,31.0769c0,.2573-.20851.4657-.46571.4657-.25729,0-.4658-.2084-.4658-.4657,0-.2572.20851-.4657.4658-.4657.2572,0,.46571.2085.46571.4657Z"/>
      <path class="cls-5" d="M130.8286,57.7939c0,.2572-.2085.4657-.4657.4657s-.4658-.2085-.4658-.4657.20861-.4657.4658-.4657.4657.2085.4657.4657Z"/>
      <path class="cls-5" d="M84.2133,61.2255c0,.2573-.20859.4657-.4658.4657s-.4657-.2084-.4657-.4657c0-.2572.2085-.4657.4657-.4657s.4658.2085.4658.4657Z"/>
      <path class="cls-5" d="M97.6862,139.1827c0,.2573-.20849.4658-.4658.4658-.2572,0-.46569-.2085-.46569-.4658,0-.2572.20849-.4657.46569-.4657.25731,0,.4658.2085.4658.4657Z"/>
      <path class="cls-5" d="M214.46639,136.9525c0,.2573-.2085.4658-.46569.4658-.25721,0-.46581-.2085-.46581-.4658,0-.2572.2086-.4657.46581-.4657.25719,0,.46569.2085.46569.4657Z"/>
      <path class="cls-1" d="M279.55019,78.1537c0,.2572-.2086.4657-.4658.4657s-.46569-.2085-.46569-.4657c0-.2573.20849-.4657.46569-.4657s.4658.2084.4658.4657Z"/>
      <path class="cls-1" d="M241.12829,57.5926c0,.2572-.2085.4658-.4657.4658s-.4657-.2086-.4657-.4658.2085-.4657.4657-.4657.4657.2085.4657.4657Z"/>
      <path class="cls-1" d="M37.2269,10.3721c0,.2572-.2085.4657-.4658.4657-.2572,0-.4657-.2085-.4657-.4657s.2085-.4657.4657-.4657c.2573,0,.4658.2085.4658.4657Z"/>
      <path class="cls-1" d="M208.30029,91.1952c0,.2572-.20859.4657-.4658.4657s-.4657-.2085-.4657-.4657c0-.2573.2085-.4657.4657-.4657s.4658.2084.4658.4657Z"/>
      <path class="cls-1" d="M255.93239,107.0136c0,.2572-.2085.4658-.4658.4658-.2572,0-.4657-.2086-.4657-.4658s.2085-.4657.4657-.4657c.2573,0,.4658.2085.4658.4657Z"/>
      <path class="cls-5" d="M276.93559,72.2706c0,.2572-.2084.4657-.4657.4657-.25719,0-.4657-.2085-.4657-.4657s.20851-.4658.4657-.4658c.2573,0,.4657.2086.4657.4658Z"/>
    </g>
  </g>
</svg>